<?xml version="1.0" encoding="utf-8"?>
<!-- Generator: Adobe Illustrator 22.0.1, SVG Export Plug-In . SVG Version: 6.00 Build 0)  -->
<svg version="1.1" id="Layer_1" xmlns="http://www.w3.org/2000/svg" xmlns:xlink="http://www.w3.org/1999/xlink" x="0px" y="0px"
	 viewBox="0 0 512 512" style="enable-background:new 0 0 512 512;" xml:space="preserve">
<g id="atoms_x2F_inputs_x2F_checkbox_x2F_checked" transform="translate(-4.000000, -5.000000)">
	<g id="checkbox-active">
		<path id="Fill-1_1_" d="M441,125.6c-5.3-5.4-12.7-8.5-20.3-8.2h0c-7.1,0.2-13.7,3.1-18.5,8.1L204,323.6l-89.3-89.3
			c-10.4-10.8-27.6-11.1-38.4-0.7c-5.2,5-8.2,11.8-8.3,19.1c-0.1,7.3,2.6,14.1,8.1,19.9l108.7,108.7c5.3,5.3,12.3,7.9,19.2,7.9
			c7,0,13.9-2.6,19.2-7.9L440.4,164c5.2-5.1,8.2-11.8,8.2-19.1C448.8,137.6,446.1,130.8,441,125.6"/>
	</g>
</g>
</svg>
