<?xml version="1.0" encoding="utf-8"?>
<!-- Generator: Adobe Illustrator 22.0.1, SVG Export Plug-In . SVG Version: 6.00 Build 0)  -->
<svg version="1.1" id="Layer_1" xmlns="http://www.w3.org/2000/svg" xmlns:xlink="http://www.w3.org/1999/xlink" x="0px" y="0px"
	 viewBox="0 0 512 512" style="enable-background:new 0 0 512 512;" xml:space="preserve">
<g>
	<path d="M431.5,93.4h-56.2V82.7c0-7.3-5.9-13.2-13.2-13.2c-7.3,0-13.2,5.9-13.2,13.2v10.6h-45.7V82.7c0-7.3-5.9-13.2-13.2-13.2
		c-7.3,0-13.2,5.9-13.2,13.2v10.6h-45.7V82.7c0-7.3-5.9-13.2-13.2-13.2c-7.3,0-13.2,5.9-13.2,13.2v10.6H159V82.7
		c0-7.3-5.9-13.2-13.2-13.2c-7.3,0-13.2,5.9-13.2,13.2v10.6H76.7c-7.3,0-13.2,5.9-13.2,13.2v291.6c0,7.3,5.9,13.2,13.2,13.2h354.8
		c7.3,0,13.2-5.9,13.2-13.2V106.5C444.7,99.3,438.8,93.4,431.5,93.4z M418.4,384.8H89.8V119.7h43v12.7c0.1,7.2,6,13.1,13.2,13.1
		c7.3,0,13.2-5.9,13.2-13.2v-12.7h45.7v12.7c0,7.3,5.9,13.2,13.2,13.2c7.3,0,13.2-5.9,13.2-13.2v-12.7H277v12.7
		c0,7.3,5.9,13.2,13.2,13.2s13.2-5.9,13.2-13.2v-12.7H349v12.7c0,7.3,5.9,13.2,13.2,13.2s13.2-5.9,13.2-13.2v-12.7h43V384.8z"/>
	<path d="M140.4,185.6c-7.3,0-13.2,5.9-13.2,13.2v12.5c0,7.3,5.9,13.2,13.2,13.2c7.3,0,13.2-5.9,13.2-13.2v-12.5
		C153.6,191.5,147.7,185.6,140.4,185.6z"/>
	<path d="M197.3,185.5c-7.3,0-13.2,5.9-13.2,13.2v12.5c0,7.3,5.9,13.2,13.2,13.2c7.3,0,13.2-5.9,13.2-13.2v-12.5
		C210.5,191.4,204.6,185.5,197.3,185.5z"/>
	<path d="M254.3,185.5c-7.3,0-13.2,5.9-13.2,13.2v12.5c0,7.3,5.9,13.2,13.2,13.2c7.3,0,13.2-5.9,13.2-13.2v-12.5
		C267.5,191.4,261.6,185.5,254.3,185.5z"/>
	<path d="M311.2,185.5c-7.3,0-13.2,5.9-13.2,13.2v12.5c0,7.3,6,13.2,13.2,13.2c7.3,0,13.2-5.9,13.2-13.2v-12.5
		C324.4,191.4,318.5,185.5,311.2,185.5z"/>
	<path d="M140.4,311.5c-7.3,0-13.2,5.9-13.2,13.2v12.7c0,7.3,5.9,13.2,13.2,13.2c7.3,0,13.2-5.9,13.2-13.2v-12.7
		C153.5,317.4,147.6,311.5,140.4,311.5z"/>
	<path d="M197.3,311.5c-7.3,0-13.2,5.9-13.2,13.2v12.7c0,7.3,5.9,13.2,13.2,13.2c7.3,0,13.2-5.9,13.2-13.2v-12.7
		C210.5,317.4,204.6,311.5,197.3,311.5z"/>
	<path d="M254.3,311.5c-7.3,0-13.2,5.9-13.2,13.2v12.7c0,7.3,5.9,13.2,13.2,13.2c7.3,0,13.2-5.9,13.2-13.2v-12.7
		C267.4,317.4,261.5,311.5,254.3,311.5z"/>
	<path d="M354.6,198.5V211c0.1,7.3,6,13.2,13.2,13.2c7.3,0,13.2-5.9,13.2-13.2v-12.5c0-7.3-5.9-13.2-13.2-13.2
		C360.5,185.3,354.6,191.2,354.6,198.5z"/>
	<path d="M140.3,287.5c7.3,0,13.2-5.9,13.2-13.2v-12.7c0-7.3-5.9-13.2-13.2-13.2c-7.3,0-13.2,5.9-13.2,13.2v12.7
		C127.2,281.6,133.1,287.5,140.3,287.5z"/>
	<path d="M367.8,248.4c-7.3,0-13.2,5.9-13.2,13.2v12.7c0.1,7.3,6,13.2,13.2,13.2c7.3,0,13.2-5.9,13.2-13.2v-12.7
		C381,254.3,375.1,248.4,367.8,248.4z"/>
	<path d="M253.9,287.5c7.3,0,13.2-5.9,13.2-13.2v-12.7c0-7.3-5.9-13.2-13.2-13.2s-13.2,5.9-13.2,13.2v12.7
		C240.8,281.6,246.7,287.5,253.9,287.5z"/>
	<path d="M197,287.5c7.3,0,13.2-5.9,13.2-13.2v-12.7c0-7.3-5.9-13.2-13.2-13.2s-13.2,5.9-13.2,13.2v12.7
		C183.8,281.6,189.7,287.5,197,287.5z"/>
	<path d="M310.5,248.4c-7.3,0-13.2,5.9-13.2,13.2v12.7c0,7.3,5.9,13.2,13.2,13.2s13.2-5.9,13.2-13.2v-12.7
		C323.7,254.3,317.8,248.4,310.5,248.4z"/>
</g>
</svg>
